<svg width="800" height="800" viewBox="0 0 800 800" fill="none" xmlns="http://www.w3.org/2000/svg">
<g clip-path="url(#clip0_1_4)">
<path d="M400 766.667L138.333 695L83.3333 66.6667H716.667L661.667 695L400 766.667ZM200 643.333L400 698.333L600 643.333L643.333 133.333H156.667L200 643.333Z" fill="#1572B6"/>
<path d="M233.333 216.667H566.667L536.667 571.667L398.333 616.667L258.333 581.667L243.333 461.667H318.333V521.667L398.333 536.667L471.667 521.667V431.667H243.333L238.333 356.667C245.183 350.42 254.065 346.867 263.333 346.667C378.333 346.667 471.667 356.667 471.667 356.667V296.667H243.333L233.333 216.667Z" fill="#1572B6"/>
</g>
<defs>
<clipPath id="clip0_1_4">
<rect width="800" height="800" fill="white"/>
</clipPath>
</defs>
</svg>
