<svg width="800" height="800" viewBox="0 0 800 800" fill="none" xmlns="http://www.w3.org/2000/svg">
<path d="M400.003 9.375C179.117 9.375 0 188.458 0 409.378C0 586.11 114.613 736.049 273.547 788.94C293.538 792.643 300.877 780.263 300.877 769.698C300.877 760.16 300.506 728.65 300.334 695.226C189.052 719.423 165.571 648.03 165.571 648.03C147.375 601.796 121.158 589.502 121.158 589.502C84.8652 564.675 123.893 565.185 123.893 565.185C164.06 568.007 185.211 606.406 185.211 606.406C220.887 667.558 278.786 649.878 301.612 639.658C305.202 613.805 315.569 596.159 327.008 586.17C238.162 576.055 144.765 541.757 144.765 388.487C144.765 344.815 160.391 309.132 185.979 281.12C181.826 271.045 168.134 230.361 189.854 175.264C189.854 175.264 223.444 164.513 299.883 216.265C331.791 207.403 366.01 202.958 400.003 202.806C433.997 202.958 468.243 207.403 500.209 216.265C576.556 164.513 610.1 175.264 610.1 175.264C631.873 230.361 618.174 271.045 614.021 281.12C639.669 309.132 655.189 344.815 655.189 388.487C655.189 542.121 561.613 575.949 472.542 585.852C486.889 598.265 499.673 622.608 499.673 659.927C499.673 713.448 499.209 756.523 499.209 769.698C499.209 780.342 506.409 792.815 526.685 788.887C685.533 735.936 800 586.051 800 409.378C800 188.458 620.91 9.375 400.003 9.375ZM149.814 579.188C148.933 581.175 145.807 581.771 142.959 580.407C140.057 579.102 138.428 576.393 139.368 574.399C140.229 572.352 143.363 571.783 146.257 573.154C149.165 574.459 150.821 577.194 149.814 579.188ZM169.49 596.745C167.582 598.513 163.853 597.692 161.323 594.896C158.706 592.108 158.216 588.379 160.15 586.584C162.118 584.815 165.734 585.643 168.357 588.432C170.974 591.253 171.484 594.956 169.49 596.745ZM182.988 619.207C180.537 620.91 176.53 619.313 174.053 615.756C171.602 612.199 171.602 607.933 174.106 606.225C176.59 604.516 180.537 606.052 183.048 609.583C185.492 613.199 185.492 617.465 182.988 619.207ZM205.817 645.222C203.624 647.64 198.954 646.991 195.536 643.692C192.039 640.466 191.065 635.889 193.264 633.472C195.483 631.047 200.18 631.73 203.624 635.002C207.095 638.221 208.155 642.831 205.817 645.222ZM235.32 654.005C234.353 657.138 229.856 658.562 225.325 657.231C220.801 655.86 217.84 652.19 218.754 649.024C219.695 645.871 224.212 644.387 228.776 645.811C233.293 647.176 236.261 650.819 235.32 654.005ZM268.897 657.73C269.009 661.029 265.167 663.764 260.412 663.824C255.629 663.93 251.761 661.261 251.708 658.015C251.708 654.683 255.463 651.974 260.246 651.894C265.002 651.802 268.897 654.451 268.897 657.73ZM301.882 656.466C302.451 659.685 299.146 662.99 294.423 663.871C289.78 664.719 285.481 662.732 284.891 659.539C284.315 656.24 287.68 652.935 292.317 652.081C297.046 651.259 301.279 653.193 301.882 656.466Z" fill="black"/>
</svg>
