<svg width="800" height="800" viewBox="0 0 800 800" fill="none" xmlns="http://www.w3.org/2000/svg">
<path d="M113.438 75L165 658.281L400 725L634.062 658.281L686.641 75H113.438ZM578.281 213.359L574.531 250.234L573.203 265.469H298.672L305.078 339.062H566.875L564.297 358.047L547.734 547.266L546.406 559.922L400.313 600.234V600.469H399.375L399.141 600.547V600.469H399.062L251.719 559.844L242.812 446.875H313.984L319.063 504.063L399.062 525.703H399.375L479.062 504.141L487.969 411.484H399.141V411.406H239.063L221.25 213.359L219.922 194.375H579.531L578.281 213.359Z" fill="#E34F26"/>
</svg>
