<svg width="800" height="800" viewBox="0 0 800 800" fill="none" xmlns="http://www.w3.org/2000/svg">
<path d="M50 50V750H750V50H50ZM430.95 595.925C430.95 664.05 390.95 695.15 332.675 695.15C280.025 695.15 249.55 667.975 233.925 635L287.525 602.65C297.85 620.925 307.225 636.4 329.875 636.4C351.425 636.4 365.175 627.95 365.175 595V371.4H430.95V595.925ZM586.55 695.15C525.45 695.15 485.925 666.1 466.7 627.95L520.3 597.025C534.375 620 552.8 637.025 585.15 637.025C612.325 637.025 629.85 623.425 629.85 604.525C629.85 582.025 612.025 574.05 581.875 560.775L565.475 553.75C517.975 533.6 486.575 508.125 486.575 454.525C486.575 405.15 524.225 367.65 582.825 367.65C624.7 367.65 654.7 382.175 676.275 420.3L625.025 453.125C613.775 432.975 601.575 425 582.675 425C563.475 425 551.275 437.2 551.275 453.125C551.275 472.825 563.475 480.775 591.75 493.125L608.15 500.15C664.1 524.05 695.5 548.6 695.5 603.575C695.5 662.65 648.925 695.125 586.575 695.125L586.55 695.15Z" fill="#F7DF1E"/>
</svg>
