<svg width="800" height="800" viewBox="0 0 800 800" fill="none" xmlns="http://www.w3.org/2000/svg">
<path fill-rule="evenodd" clip-rule="evenodd" d="M640 160H160V640H640V160ZM354.461 576H314.352V417.421H256.844V384.352H411.968V417.421H354.461V576ZM585.258 518.89C585.258 556.874 555.773 580.915 507.962 580.915C462.141 580.915 433.187 559.002 430.931 524.998L430.797 522.874H469.446L469.578 524.202C471.04 538.547 486.579 548.243 509.024 548.243C530.406 548.243 545.149 538.016 545.149 523.274V523.139C545.149 510.525 535.718 503.485 511.946 498.57L491.757 494.454C451.914 486.352 434.781 467.757 434.781 438.672V438.538C434.781 402.944 465.328 379.437 507.827 379.437C552.586 379.437 578.883 403.078 581.405 435.085L581.539 436.813H543.821L543.555 435.219C541.296 421.539 528.016 411.978 507.827 411.978C488.038 412.109 474.89 421.139 474.89 435.485V435.616C474.89 448.102 484.189 455.539 506.765 460.189L527.085 464.304C567.594 472.672 585.258 488.874 585.258 518.758V518.89Z" fill="#3178C6"/>
</svg>
